<svg width="500" height="207" viewBox="0 0 500 207" fill="none" xmlns="http://www.w3.org/2000/svg">
<rect width="500" height="206.019" transform="matrix(1 0 0 -1 0 206.019)" fill="url(#paint0_linear_2_9)"/>
<path d="M285.75 139.5H264V125H285.75C291.518 125 297.051 122.708 301.13 118.63C305.208 114.551 307.5 109.018 307.5 103.25C307.5 97.4815 305.208 91.9493 301.13 87.8704C297.051 83.7915 291.518 81.5 285.75 81.5H264V67H285.75C295.364 67 304.584 70.8192 311.383 77.6174C318.181 84.4156 322 93.6359 322 103.25C322 112.864 318.181 122.084 311.383 128.883C304.584 135.681 295.364 139.5 285.75 139.5ZM235 139.5H213.25C203.636 139.5 194.416 135.681 187.617 128.883C180.819 122.084 177 112.864 177 103.25C177 93.6359 180.819 84.4156 187.617 77.6174C194.416 70.8192 203.636 67 213.25 67H235V81.5H213.25C207.482 81.5 201.949 83.7915 197.87 87.8704C193.792 91.9493 191.5 97.4815 191.5 103.25C191.5 109.018 193.792 114.551 197.87 118.63C201.949 122.708 207.482 125 213.25 125H235V139.5ZM285.75 110.5H213.25V96H285.75V110.5Z" fill="white"/>
<path d="M327.031 28.7673C327.192 28.3319 327.808 28.3319 327.969 28.7673L332.822 41.8826C332.873 42.0194 332.981 42.1273 333.117 42.178L346.233 47.0311C346.668 47.1922 346.668 47.8078 346.233 47.9689L333.117 52.822C332.981 52.8727 332.873 52.9806 332.822 53.1174L327.969 66.2327C327.808 66.6681 327.192 66.6681 327.031 66.2327L322.178 53.1174C322.127 52.9806 322.019 52.8727 321.883 52.822L308.767 47.9689C308.332 47.8078 308.332 47.1922 308.767 47.0311L321.883 42.178C322.019 42.1273 322.127 42.0194 322.178 41.8826L327.031 28.7673Z" fill="white"/>
<path d="M347.031 68.7673C347.192 68.3319 347.808 68.3319 347.969 68.7673L350.121 74.5835C350.172 74.7203 350.28 74.8282 350.417 74.8789L356.233 77.0311C356.668 77.1922 356.668 77.8078 356.233 77.9689L350.417 80.1211C350.28 80.1718 350.172 80.2797 350.121 80.4165L347.969 86.2327C347.808 86.6681 347.192 86.6681 347.031 86.2327L344.879 80.4165C344.828 80.2797 344.72 80.1718 344.583 80.1211L338.767 77.9689C338.332 77.8078 338.332 77.1922 338.767 77.0311L344.583 74.8789C344.72 74.8282 344.828 74.7203 344.879 74.5835L347.031 68.7673Z" fill="white"/>
<defs>
<linearGradient id="paint0_linear_2_9" x1="321.5" y1="-81.9815" x2="63" y2="271.019" gradientUnits="userSpaceOnUse">
<stop offset="0.03125" stop-color="#AC219E" stop-opacity="0.5"/>
<stop offset="0.512198" stop-color="#814DD6" stop-opacity="0.8"/>
<stop offset="1" stop-color="#301699" stop-opacity="0.813902"/>
</linearGradient>
</defs>
</svg>
