<svg width="24" height="24" viewBox="0 0 24 24" fill="none" xmlns="http://www.w3.org/2000/svg">
<circle cx="12" cy="12" r="12" fill="#FFFF00"/>
<path d="M3.75852 16V7.27273H7.2017C7.86364 7.27273 8.42756 7.39915 8.89347 7.65199C9.35938 7.90199 9.71449 8.25 9.95881 8.69602C10.206 9.1392 10.3295 9.65057 10.3295 10.2301C10.3295 10.8097 10.2045 11.321 9.95455 11.7642C9.70455 12.2074 9.34233 12.5526 8.8679 12.7997C8.39631 13.0469 7.82528 13.1705 7.15483 13.1705H4.96023V11.6918H6.85653C7.21165 11.6918 7.50426 11.6307 7.73438 11.5085C7.96733 11.3835 8.14063 11.2116 8.25426 10.9929C8.37074 10.7713 8.42898 10.517 8.42898 10.2301C8.42898 9.94034 8.37074 9.6875 8.25426 9.47159C8.14063 9.25284 7.96733 9.08381 7.73438 8.96449C7.50142 8.84233 7.20597 8.78125 6.84801 8.78125H5.60369V16H3.75852ZM19.5479 11.6364C19.5479 12.5881 19.3675 13.3977 19.0067 14.0653C18.6488 14.733 18.1602 15.2429 17.5408 15.5952C16.9244 15.9446 16.2312 16.1193 15.4613 16.1193C14.6857 16.1193 13.9897 15.9432 13.3732 15.5909C12.7567 15.2386 12.2695 14.7287 11.9116 14.0611C11.5536 13.3935 11.3746 12.5852 11.3746 11.6364C11.3746 10.6847 11.5536 9.875 11.9116 9.20739C12.2695 8.53977 12.7567 8.03125 13.3732 7.68182C13.9897 7.32955 14.6857 7.15341 15.4613 7.15341C16.2312 7.15341 16.9244 7.32955 17.5408 7.68182C18.1602 8.03125 18.6488 8.53977 19.0067 9.20739C19.3675 9.875 19.5479 10.6847 19.5479 11.6364ZM17.6772 11.6364C17.6772 11.0199 17.5849 10.5 17.4002 10.0767C17.2184 9.65341 16.9613 9.33239 16.6289 9.11364C16.2965 8.89489 15.9073 8.78551 15.4613 8.78551C15.0153 8.78551 14.6261 8.89489 14.2937 9.11364C13.9613 9.33239 13.7028 9.65341 13.5181 10.0767C13.3363 10.5 13.2454 11.0199 13.2454 11.6364C13.2454 12.2528 13.3363 12.7727 13.5181 13.196C13.7028 13.6193 13.9613 13.9403 14.2937 14.1591C14.6261 14.3778 15.0153 14.4872 15.4613 14.4872C15.9073 14.4872 16.2965 14.3778 16.6289 14.1591C16.9613 13.9403 17.2184 13.6193 17.4002 13.196C17.5849 12.7727 17.6772 12.2528 17.6772 11.6364Z" fill="black"/>
</svg>
